<?xml version="1.0" encoding="UTF-8"?>
<!DOCTYPE svg PUBLIC "-//W3C//DTD SVG 1.1//EN" "http://www.w3.org/Graphics/SVG/1.1/DTD/svg11.dtd">
<!-- Creator: CorelDRAW 2021 (64-Bit) -->
<svg xmlns="http://www.w3.org/2000/svg" xml:space="preserve" width="0.360504in" height="0.36126in" version="1.1" style="shape-rendering:geometricPrecision; text-rendering:geometricPrecision; image-rendering:optimizeQuality; fill-rule:evenodd; clip-rule:evenodd"
viewBox="0 0 390.04 390.86"
 xmlns:xlink="http://www.w3.org/1999/xlink"
 xmlns:xodm="http://www.corel.com/coreldraw/odm/2003">
 <defs>
  <style type="text/css">
   <![CDATA[
    .fil1 {fill:#224F34}
    .fil0 {fill:#224F34;fill-rule:nonzero}
   ]]>
  </style>
 </defs>
 <g id="Layer_x0020_1">
  <metadata id="CorelCorpID_0Corel-Layer"/>
  <g id="_2829006606080">
   <path id="cart.svg" class="fil0" d="M295.86 84.53l-42.27 0c0,-22.42 -8.91,-43.92 -24.76,-59.77 -15.85,-15.85 -37.35,-24.76 -59.77,-24.76 -22.42,0 -43.92,8.91 -59.77,24.76 -15.85,15.85 -24.76,37.34 -24.76,59.77l-42.27 0c-11.2,0 -21.96,4.46 -29.89,12.38 -7.93,7.93 -12.38,18.68 -12.38,29.89l0 140.88c0.03,18.67 7.46,36.57 20.66,49.79 13.2,13.2 31.1,20.63 49.79,20.66l102.32 0c-3.32,-8.97 -5.67,-18.4 -6.91,-28.18l-95.41 0c-11.2,0 -21.96,-4.46 -29.89,-12.38 -7.93,-7.93 -12.38,-18.67 -12.38,-29.89l0 -140.88c0,-3.74 1.48,-7.32 4.13,-9.96 2.64,-2.64 6.22,-4.12 9.95,-4.12l42.27 0 0 28.17c0,3.74 1.48,7.33 4.13,9.96 2.64,2.64 6.22,4.13 9.96,4.13 3.74,0 7.32,-1.48 9.95,-4.13 2.64,-2.64 4.13,-6.22 4.13,-9.96l0 -28.17 112.7 0 0 28.17c0,3.74 1.48,7.33 4.13,9.96 2.64,2.64 6.22,4.13 9.95,4.13 3.74,0 7.33,-1.48 9.96,-4.13 2.64,-2.64 4.13,-6.22 4.13,-9.96l0 -28.17 42.27 0c3.74,0 7.32,1.48 9.95,4.12 2.64,2.65 4.13,6.23 4.13,9.96l0 39.99c9.79,1.3 19.22,3.72 28.18,7.11l0 -47.1c0,-11.2 -4.46,-21.96 -12.38,-29.89 -7.93,-7.93 -18.68,-12.38 -29.89,-12.38l-0.01 0zm-183.14 0c0,-14.95 5.94,-29.28 16.51,-39.84 10.56,-10.56 24.89,-16.51 39.84,-16.51 14.95,0 29.28,5.94 39.84,16.51 10.56,10.56 16.51,24.9 16.51,39.84l-112.7 0z"/>
   <circle class="fil1" cx="292.86" cy="293.68" r="97.18"/>
  </g>
 </g>
</svg>
