<?xml version="1.0" encoding="UTF-8"?>
<!DOCTYPE svg PUBLIC "-//W3C//DTD SVG 1.1//EN" "http://www.w3.org/Graphics/SVG/1.1/DTD/svg11.dtd">
<!-- Creator: CorelDRAW 2021 (64-Bit) -->
<svg xmlns="http://www.w3.org/2000/svg" xml:space="preserve" width="0.321945in" height="0.321945in" version="1.1" style="shape-rendering:geometricPrecision; text-rendering:geometricPrecision; image-rendering:optimizeQuality; fill-rule:evenodd; clip-rule:evenodd"
viewBox="0 0 18.98 18.98"
 xmlns:xlink="http://www.w3.org/1999/xlink"
 xmlns:xodm="http://www.corel.com/coreldraw/odm/2003">
 <defs>
  <style type="text/css">
   <![CDATA[
    .fil0 {fill:white;fill-rule:nonzero}
   ]]>
  </style>
 </defs>
 <g id="Layer_x0020_1">
  <metadata id="CorelCorpID_0Corel-Layer"/>
  <path class="fil0" d="M10.26 14.5l0 -4.58 1.54 0 0.23 -1.77 -1.77 0 0 -1.01c0,-0.28 0.02,-0.46 0.05,-0.53 0,-0.02 0.03,-0.08 0.08,-0.17 0.11,-0.21 0.41,-0.32 0.89,-0.32l0.82 0 0 -1.58c-0.43,-0.05 -0.88,-0.08 -1.36,-0.08 -0.93,0 -1.59,0.34 -1.98,1.02 -0.22,0.38 -0.33,0.81 -0.33,1.31l0 1.36 -1.53 0 0 1.77 1.53 0 0 4.58 1.84 0zm-0.77 4.48c-1.27,0 -2.48,-0.24 -3.63,-0.71 -1.15,-0.48 -2.18,-1.17 -3.08,-2.07 -0.9,-0.9 -1.59,-1.93 -2.07,-3.08 -0.48,-1.15 -0.72,-2.36 -0.72,-3.63 0,-1.27 0.24,-2.48 0.72,-3.63 0.47,-1.15 1.16,-2.18 2.07,-3.08 0.9,-0.9 1.93,-1.59 3.08,-2.07 1.15,-0.48 2.36,-0.72 3.63,-0.72 1.26,0 2.48,0.24 3.63,0.72 1.15,0.47 2.18,1.16 3.08,2.07 0.9,0.9 1.59,1.93 2.07,3.08 0.47,1.15 0.71,2.36 0.71,3.63 0,1.26 -0.24,2.48 -0.71,3.63 -0.48,1.15 -1.17,2.18 -2.07,3.08 -0.9,0.9 -1.93,1.59 -3.08,2.07 -1.15,0.47 -2.36,0.71 -3.63,0.71z"/>
 </g>
</svg>
