<?xml version="1.0" encoding="UTF-8"?>
<!DOCTYPE svg PUBLIC "-//W3C//DTD SVG 1.1//EN" "http://www.w3.org/Graphics/SVG/1.1/DTD/svg11.dtd">
<!-- Creator: CorelDRAW 2021 (64-Bit) -->
<svg xmlns="http://www.w3.org/2000/svg" xml:space="preserve" width="0.321945in" height="0.321945in" version="1.1" style="shape-rendering:geometricPrecision; text-rendering:geometricPrecision; image-rendering:optimizeQuality; fill-rule:evenodd; clip-rule:evenodd"
viewBox="0 0 22.38 22.38"
 xmlns:xlink="http://www.w3.org/1999/xlink"
 xmlns:xodm="http://www.corel.com/coreldraw/odm/2003">
 <defs>
  <style type="text/css">
   <![CDATA[
    .fil0 {fill:white;fill-rule:nonzero}
   ]]>
  </style>
 </defs>
 <g id="Layer_x0020_1">
  <metadata id="CorelCorpID_0Corel-Layer"/>
  <path class="fil0" d="M11.19 22.38c-1.49,0 -2.92,-0.28 -4.28,-0.84 -1.36,-0.56 -2.57,-1.38 -3.63,-2.44 -1.07,-1.07 -1.88,-2.28 -2.44,-3.63 -0.56,-1.36 -0.85,-2.78 -0.85,-4.28 0,-1.49 0.28,-2.92 0.85,-4.28 0.56,-1.36 1.37,-2.57 2.44,-3.63 1.06,-1.07 2.28,-1.88 3.63,-2.44 1.36,-0.56 2.78,-0.85 4.28,-0.85 1.49,0 2.92,0.28 4.28,0.85 1.36,0.56 2.57,1.37 3.63,2.44 1.06,1.06 1.87,2.28 2.44,3.63 0.56,1.36 0.84,2.78 0.84,4.28 0,1.49 -0.28,2.92 -0.84,4.28 -0.56,1.36 -1.38,2.57 -2.44,3.63 -1.07,1.06 -2.27,1.87 -3.63,2.44 -1.36,0.56 -2.78,0.84 -4.28,0.84zm0 -16.76c-0.51,0 -0.9,0 -1.16,0 -0.26,0 -0.47,0 -0.64,0.01 -0.17,0.01 -0.34,0.02 -0.53,0.02 -0.58,0.03 -1.04,0.12 -1.37,0.26 -0.36,0.14 -0.7,0.35 -1,0.65 -0.3,0.31 -0.52,0.63 -0.66,1 -0.14,0.33 -0.23,0.79 -0.26,1.37 -0.01,0.19 -0.02,0.36 -0.02,0.53 -0,0.16 -0.01,0.37 -0.01,0.64 -0,0.27 -0,0.65 -0,1.15 0,0.51 0,0.9 0,1.17 0,0.26 0.01,0.48 0.01,0.64 0,0.16 0.01,0.34 0.02,0.53 0.03,0.58 0.12,1.04 0.26,1.37 0.14,0.36 0.36,0.7 0.66,1 0.3,0.3 0.63,0.52 1,0.66 0.33,0.14 0.79,0.23 1.37,0.26 0.19,0.01 0.36,0.02 0.53,0.02 0.16,0.01 0.38,0.01 0.64,0.01 0.26,0 0.65,0 1.15,0 0.51,0 0.9,0 1.16,0 0.26,0 0.47,-0 0.64,-0.01 0.17,-0.01 0.34,-0.02 0.53,-0.02 0.58,-0.03 1.04,-0.12 1.37,-0.26 0.36,-0.14 0.7,-0.36 1,-0.66 0.3,-0.3 0.52,-0.63 0.66,-1 0.14,-0.33 0.23,-0.79 0.26,-1.37 0.01,-0.19 0.01,-0.36 0.02,-0.53 0,-0.16 0.01,-0.38 0.01,-0.64 0,-0.26 0.01,-0.65 0.01,-1.17 0,-0.51 -0,-0.89 -0.01,-1.15 -0,-0.26 -0.01,-0.48 -0.01,-0.64 -0,-0.16 -0.01,-0.34 -0.02,-0.53 -0.03,-0.58 -0.12,-1.04 -0.26,-1.37 -0.14,-0.36 -0.36,-0.69 -0.66,-1 -0.3,-0.3 -0.63,-0.52 -1,-0.65 -0.34,-0.15 -0.8,-0.23 -1.37,-0.26 -0.19,-0.01 -0.36,-0.02 -0.53,-0.02 -0.17,-0.01 -0.38,-0.01 -0.64,-0.01 -0.26,0 -0.64,0 -1.15,0zm-0.51 1.02c0.1,0 0.2,0 0.32,0 0.06,0 0.12,0 0.19,0 0.5,0 0.87,0 1.13,0 0.26,0 0.46,0 0.62,0.01 0.16,0.01 0.33,0.02 0.52,0.02 0.53,0.04 0.88,0.1 1.05,0.19 0.25,0.09 0.46,0.23 0.65,0.42 0.19,0.18 0.33,0.4 0.42,0.64 0.09,0.17 0.15,0.53 0.19,1.05 0.01,0.19 0.02,0.36 0.02,0.52 0.01,0.16 0.01,0.37 0.01,0.62 0,0.26 0,0.63 0,1.13 0,0.51 0,0.89 0,1.14 0,0.26 -0,0.46 -0.01,0.62 -0.01,0.16 -0.02,0.33 -0.02,0.52 -0.04,0.52 -0.1,0.87 -0.19,1.04 -0.09,0.25 -0.23,0.47 -0.42,0.66 -0.18,0.19 -0.39,0.33 -0.65,0.42 -0.17,0.09 -0.53,0.15 -1.05,0.19 -0.19,0.01 -0.36,0.01 -0.52,0.02 -0.16,0 -0.37,0.01 -0.62,0.01 -0.26,0 -0.63,0.01 -1.13,0.01 -0.51,0 -0.89,-0 -1.14,-0.01 -0.26,-0 -0.46,-0.01 -0.62,-0.01 -0.16,-0 -0.33,-0.01 -0.52,-0.02 -0.52,-0.04 -0.87,-0.1 -1.04,-0.19 -0.25,-0.1 -0.47,-0.24 -0.66,-0.42 -0.19,-0.19 -0.32,-0.41 -0.42,-0.66 -0.09,-0.17 -0.15,-0.52 -0.19,-1.04 -0.01,-0.19 -0.02,-0.36 -0.02,-0.52 -0.01,-0.16 -0.01,-0.36 -0.01,-0.62 0,-0.26 0,-0.64 0,-1.14 0,-0.5 0,-0.87 0,-1.13 0,-0.25 0,-0.46 0.01,-0.62 0.01,-0.16 0.02,-0.33 0.02,-0.52 0.04,-0.53 0.1,-0.88 0.19,-1.05 0.09,-0.25 0.23,-0.46 0.42,-0.64 0.19,-0.19 0.41,-0.33 0.66,-0.42 0.17,-0.09 0.52,-0.15 1.04,-0.19 0.17,-0.02 0.32,-0.03 0.46,-0.03 0.14,-0 0.31,-0.01 0.5,-0.01 0.2,0 0.47,0 0.81,0zm3.52 0.94c-0.19,0 -0.35,0.07 -0.48,0.2 -0.13,0.14 -0.2,0.29 -0.2,0.47 0,0.19 0.07,0.35 0.2,0.48 0.14,0.13 0.29,0.2 0.48,0.2 0.18,0 0.34,-0.07 0.47,-0.2 0.13,-0.14 0.2,-0.29 0.2,-0.48 0,-0.18 -0.07,-0.34 -0.19,-0.47 -0.13,-0.13 -0.29,-0.2 -0.48,-0.2zm-3.01 0.78c-0.8,0 -1.48,0.29 -2.05,0.85 -0.56,0.57 -0.85,1.25 -0.85,2.05 0,0.81 0.28,1.49 0.85,2.05 0.57,0.56 1.25,0.84 2.05,0.84 0.8,0 1.48,-0.28 2.05,-0.84 0.56,-0.56 0.85,-1.25 0.85,-2.05 0,-0.8 -0.29,-1.48 -0.85,-2.05 -0.56,-0.56 -1.25,-0.85 -2.05,-0.85zm0 1.02c0.51,0 0.95,0.19 1.32,0.56 0.37,0.37 0.56,0.81 0.56,1.32 0,0.52 -0.19,0.97 -0.56,1.34 -0.37,0.37 -0.81,0.56 -1.32,0.56 -0.52,0 -0.97,-0.19 -1.34,-0.56 -0.37,-0.37 -0.56,-0.81 -0.56,-1.34 0,-0.51 0.19,-0.95 0.56,-1.32 0.37,-0.37 0.82,-0.56 1.34,-0.56z"/>
 </g>
</svg>
