<?xml version="1.0" encoding="UTF-8"?>
<!DOCTYPE svg PUBLIC "-//W3C//DTD SVG 1.1//EN" "http://www.w3.org/Graphics/SVG/1.1/DTD/svg11.dtd">
<!-- Creator: CorelDRAW 2021 (64-Bit) -->
<svg xmlns="http://www.w3.org/2000/svg" xml:space="preserve" width="4.59302in" height="2.04216in" version="1.1" style="shape-rendering:geometricPrecision; text-rendering:geometricPrecision; image-rendering:optimizeQuality; fill-rule:evenodd; clip-rule:evenodd"
viewBox="0 0 1806 802.99"
 xmlns:xlink="http://www.w3.org/1999/xlink"
 xmlns:xodm="http://www.corel.com/coreldraw/odm/2003">
 <defs>
  <style type="text/css">
   <![CDATA[
    .fil0 {fill:white;fill-rule:nonzero}
   ]]>
  </style>
 </defs>
 <g id="Layer_x0020_1">
  <metadata id="CorelCorpID_0Corel-Layer"/>
  <path class="fil0" d="M446.65 100.98c-28.48,-31.07 -75.74,-52.75 -141.76,-65.05 -3.24,-0.65 -38.52,-3.88 -105.84,-9.71 -14.24,-1.3 -66.03,-1.94 -155.35,-1.94 -7.77,0.65 -14.56,2.27 -20.39,4.85 -13.59,7.12 -21.36,19.74 -23.3,37.87l0 731.14 85.44 0c20.71,-1.94 31.07,-14.89 31.07,-38.84l0 -255.36 84.47 0c3.24,0 6.8,0.97 10.68,2.91 8.42,3.88 15.86,11.33 22.33,22.33l143.7 226.23c22.66,31.72 43.37,45.64 62.14,41.75l72.82 0.97 -203.9 -298.09c40.13,-11.65 74.44,-26.54 102.92,-44.66 67.97,-44.02 101.95,-101.95 101.95,-173.8l0 -7.77c0,-66.03 -22.33,-123.64 -67,-172.83zm-198.08 372.85c-49.2,5.18 -93.21,6.47 -132.05,3.88l0 -397.12c0,-20.07 12.3,-31.07 36.9,-33.01 39.49,0 72.82,3.88 100.01,11.65 44.02,12.95 80.59,39.97 109.72,81.08 29.13,41.1 43.69,84.96 43.69,131.57 0,43.37 -15.54,86.74 -46.61,130.11 -33.66,46.61 -70.88,70.56 -111.66,71.85z"/>
  <path id="_1" class="fil0" d="M675.79 56.32c0,15.54 -5.5,28.64 -16.67,39.33 -11,10.68 -24.44,16.02 -40.13,16.02 -15.7,0 -28.97,-5.34 -39.65,-16.02 -10.84,-10.68 -16.18,-23.79 -16.18,-39.33 0,-15.53 5.34,-28.8 16.18,-39.81 10.68,-11.01 23.95,-16.51 39.65,-16.51 15.7,0 29.13,5.5 40.13,16.51 11.17,11 16.67,24.27 16.67,39.81zm0 121.37l0 592.29c3.24,16.83 -7.77,25.89 -33.01,27.19l-79.62 0 0 -582.58c-2.59,-23.3 10.36,-35.6 38.84,-36.9l73.79 0z"/>
  <path id="_2" class="fil0" d="M727.25 179.63l179.63 618.51 80.59 0c14.89,3.24 30.1,-8.09 45.64,-33.98 7.77,-13.59 100.66,-208.43 278.67,-584.52l-85.44 0c-13.59,-1.94 -25.57,13.92 -35.93,47.58 -4.53,16.83 -66.67,199.7 -186.43,548.6l-156.33 -555.39c-7.12,-25.24 -22.33,-38.84 -45.64,-40.78l-74.76 0z"/>
  <path id="_3" class="fil0" d="M1569.08 175.74c-76.38,0 -139.5,36.57 -189.34,109.72 -44.02,64.73 -66.03,137.23 -66.03,217.5 0,75.09 20.07,142.08 60.2,200.99 44.66,66.03 103.25,99.04 175.74,99.04 77.03,0 140.47,-36.57 190.31,-109.72 44.02,-64.73 66.03,-137.23 66.03,-217.5 0,-75.09 -20.07,-142.08 -60.2,-200.99 -45.31,-66.02 -104.22,-99.04 -176.71,-99.04zm124.28 312.65c-1.94,80.27 -16.99,148.07 -45.15,203.42 -28.16,55.34 -61.01,82.69 -98.55,82.05 -37.54,-1.3 -68.94,-30.42 -94.18,-87.39 -25.25,-56.96 -36.9,-125.25 -34.95,-204.87 1.94,-79.62 16.99,-147.26 45.15,-202.93 28.16,-55.67 61.01,-83.18 98.55,-82.53 37.54,1.29 68.94,30.42 94.18,87.39 25.24,56.96 36.9,125.26 34.95,204.87z"/>
 </g>
</svg>
